<svg id="Capa_1" enable-background="new 0 0 512 512" height="512" viewBox="0 0 512 512" width="512" xmlns="http://www.w3.org/2000/svg"><g><path d="m256 0c-108.597 0-196.632 88.035-196.632 196.632 0 31.325 8.583 62.947 24.113 90.511 11.679 20.728 119.519 165.606 158.524 217.839 6.988 9.357 21.002 9.357 27.99 0 39.005-52.233 146.845-197.111 158.524-217.839 15.53-27.564 24.113-59.186 24.113-90.511 0-108.597-88.035-196.632-196.632-196.632z" fill="#80d261"/><path d="m452.631 196.628c0 31.334-8.577 62.955-24.115 90.51-11.677 20.738-119.517 165.616-158.522 217.842-6.58 8.824-19.42 9.329-26.721 1.514 1.915-1.133 3.655-2.667 5.097-4.592 39.005-52.236 146.845-197.115 158.522-217.842 15.538-27.565 24.115-59.187 24.115-90.51 0-95.339-67.857-174.832-157.904-192.81 100.581 8.658 179.528 93.062 179.528 195.888z" fill="#68ca44"/><circle cx="256" cy="196.805" fill="#fef1da" r="157.381"/><path d="m413.379 196.803c0 86.927-70.462 157.389-157.379 157.389-29.398 0-56.922-8.062-80.46-22.097 18.452 7.599 38.675 11.79 59.867 11.79 86.917 0 157.379-70.462 157.379-157.379 0-57.539-30.881-107.861-76.97-135.312 57.25 23.538 97.563 79.873 97.563 145.609z" fill="#fae2c0"/><path d="m339.803 295.912h-167.606v-110.187l11.842-20.566-11.842-27.791v-29.09c0-2.801 2.27-5.071 5.071-5.071h157.465c2.801 0 5.071 2.27 5.071 5.071v29.09l-10.295 24.179 10.295 24.179v110.186z" fill="#685e68"/><path d="m339.807 108.28v29.088l-10.299 24.179 10.299 24.179v104.677h-20.594v-182.123c0-2.801-2.276-5.076-5.076-5.076h20.594c2.8-.001 5.076 2.275 5.076 5.076z" fill="#554e56"/><g><path d="m172.197 137.368h167.607v48.357h-167.607z" fill="#fee45a"/></g><g><path d="m319.213 137.368h20.59v48.357h-20.59z" fill="#fed402"/></g><path d="m264.049 295.912h-54.932v-72.717c0-2.011 1.63-3.641 3.641-3.641h47.65c2.011 0 3.641 1.63 3.641 3.641z" fill="#fee45a"/><path d="m264.052 223.194v67.208h-20.594v-67.208c0-2.008-1.637-3.645-3.645-3.645h20.594c2.008 0 3.645 1.637 3.645 3.645z" fill="#fed402"/><path d="m382.529 290.402c-28.667 38.706-74.674 63.79-126.529 63.79s-97.862-25.083-126.529-63.79z" fill="#fdd79b"/><path d="m382.529 290.402c-28.667 38.706-74.674 63.79-126.529 63.79-29.387 0-56.901-8.052-80.429-22.087 18.442 7.589 38.655 11.78 59.836 11.78 47.098 0 89.367-20.687 118.209-53.482h28.913z" fill="#fccd7f"/></g></svg>